<?xml version="1.0" encoding="utf-8"?>
<!-- Generator: Adobe Illustrator 25.4.1, SVG Export Plug-In . SVG Version: 6.00 Build 0)  -->
<svg version="1.1" id="Layer_1" xmlns="http://www.w3.org/2000/svg" xmlns:xlink="http://www.w3.org/1999/xlink" x="0px" y="0px"
	 viewBox="0 0 112.5 38.5" style="enable-background:new 0 0 112.5 38.5;" xml:space="preserve">
<style type="text/css">
	.st0{fill:#FFFFFF;}
	.st1{fill:none;stroke:#FFFFFF;}
</style>
<g>
	<g>
		<g>
			<g>
				<path class="st0" d="M19.9,7h-9.1c-0.5,0-1,0.2-1.4,0.6C9,8,8.8,8.5,8.8,9v21c0,0.5,0.2,1.1,0.6,1.4c0.4,0.4,0.9,0.6,1.4,0.6
					h9.1c0.5,0,1-0.2,1.4-0.6c0.4-0.4,0.6-0.9,0.6-1.4v-21c0-0.3,0-0.5-0.1-0.8c-0.1-0.2-0.2-0.5-0.4-0.7c-0.2-0.2-0.4-0.3-0.6-0.4
					C20.4,7.1,20.1,7,19.9,7z M15.3,30.6c-0.3,0-0.5-0.1-0.7-0.2c-0.2-0.1-0.4-0.4-0.5-0.6c-0.1-0.2-0.1-0.5-0.1-0.8
					c0.1-0.3,0.2-0.5,0.4-0.7c0.2-0.2,0.4-0.3,0.7-0.4c0.3-0.1,0.5,0,0.8,0.1c0.2,0.1,0.4,0.3,0.6,0.5c0.1,0.2,0.2,0.5,0.2,0.8
					c0,0.4-0.1,0.7-0.4,1C16,30.4,15.6,30.6,15.3,30.6z M20.3,27.2h-10V11.7h10V27.2z"/>
				<path class="st0" d="M29.3,10.7l-0.6,1.7H28l1.8-5.5h0.8l1.8,5.5h-0.7l-0.6-1.7L29.3,10.7z M31,10.2l-0.5-1.6
					c-0.1-0.4-0.2-0.7-0.3-1h0c-0.1,0.3-0.2,0.7-0.3,1l-0.5,1.6L31,10.2z"/>
				<path class="st0" d="M33.2,8.5l0.8,2.2c0.1,0.3,0.2,0.7,0.3,1h0c0.1-0.3,0.2-0.7,0.3-1l0.7-2.2h0.7l-1.5,4h-0.7l-1.5-4H33.2z"/>
				<path class="st0" d="M39.3,11.5c0,0.3,0,0.6,0.1,1h-0.6L38.7,12h0c-0.1,0.2-0.3,0.3-0.5,0.4c-0.2,0.1-0.4,0.2-0.7,0.1
					c-0.1,0-0.3,0-0.4-0.1c-0.1-0.1-0.3-0.1-0.4-0.2c-0.1-0.1-0.2-0.2-0.3-0.4c-0.1-0.1-0.1-0.3-0.1-0.5c0-1,0.8-1.5,2.3-1.5V9.9
					c0-0.3-0.1-0.9-0.9-0.9c-0.4,0-0.7,0.1-1,0.3l-0.2-0.5c0.4-0.2,0.8-0.3,1.3-0.3c1.2,0,1.5,0.8,1.5,1.6L39.3,11.5z M38.6,10.4
					c-0.8,0-1.6,0.1-1.6,0.9c0,0.1,0,0.2,0,0.3c0,0.1,0.1,0.2,0.1,0.2c0.1,0.1,0.1,0.1,0.2,0.1c0.1,0,0.2,0,0.3,0
					c0.2,0,0.4-0.1,0.6-0.2c0.2-0.1,0.3-0.3,0.4-0.5c0-0.1,0-0.2,0-0.2L38.6,10.4z"/>
				<path class="st0" d="M40.7,7.8c-0.1,0-0.2-0.1-0.3-0.1s-0.1-0.2-0.1-0.3c0-0.1,0.1-0.2,0.1-0.3c0.1-0.1,0.2-0.1,0.3-0.1
					c0.1,0,0.2,0,0.3,0.1c0.1,0.1,0.1,0.2,0.1,0.3c0,0.1,0,0.1,0,0.2c0,0.1-0.1,0.1-0.1,0.2c0,0-0.1,0.1-0.1,0.1
					C40.8,7.8,40.8,7.8,40.7,7.8L40.7,7.8z M40.4,12.5v-4h0.7v4H40.4z"/>
				<path class="st0" d="M42.2,6.6h0.7v5.8h-0.7V6.6z"/>
				<path class="st0" d="M46.7,11.5c0,0.3,0,0.6,0.1,1h-0.6L46.1,12h0c-0.1,0.2-0.3,0.3-0.5,0.4c-0.2,0.1-0.4,0.2-0.7,0.1
					c-0.1,0-0.3,0-0.4-0.1c-0.1-0.1-0.3-0.1-0.4-0.2s-0.2-0.2-0.3-0.4s-0.1-0.3-0.1-0.5c0-1,0.8-1.5,2.3-1.5V9.9
					c0-0.3-0.1-0.9-0.9-0.9c-0.4,0-0.7,0.1-1,0.3L44,8.8c0.4-0.2,0.8-0.3,1.3-0.3c1.2,0,1.5,0.8,1.5,1.6L46.7,11.5z M46,10.4
					c-0.8,0-1.6,0.1-1.6,0.9c0,0.1,0,0.2,0,0.3c0,0.1,0.1,0.2,0.1,0.2c0.1,0.1,0.1,0.1,0.2,0.1c0.1,0,0.2,0,0.3,0
					c0.2,0,0.4-0.1,0.6-0.2c0.2-0.1,0.3-0.3,0.4-0.5c0-0.1,0-0.2,0-0.2L46,10.4z"/>
				<path class="st0" d="M47.8,6.6h0.7v2.5h0c0.1-0.2,0.3-0.4,0.6-0.6c0.2-0.1,0.5-0.2,0.8-0.2c1,0,1.6,0.8,1.6,2
					c0,1.4-0.9,2.1-1.7,2.1c-0.3,0-0.5,0-0.7-0.2c-0.2-0.1-0.4-0.3-0.5-0.6h0l0,0.7h-0.6c0-0.3,0-0.7,0-1L47.8,6.6z M48.5,10.9
					c0,0.1,0,0.2,0,0.3c0.1,0.2,0.2,0.5,0.4,0.6c0.2,0.2,0.4,0.2,0.7,0.2c0.7,0,1.2-0.6,1.2-1.5c0-0.8-0.4-1.5-1.1-1.5
					c-0.2,0-0.5,0.1-0.7,0.3c-0.2,0.2-0.3,0.4-0.4,0.6c0,0.1,0,0.2,0,0.3V10.9z"/>
				<path class="st0" d="M52.3,6.6H53v5.8h-0.7V6.6z"/>
				<path class="st0" d="M54.5,10.6c0,1,0.6,1.4,1.3,1.4c0.4,0,0.7-0.1,1.1-0.2l0.1,0.5c-0.4,0.2-0.8,0.3-1.3,0.3
					c-1.2,0-1.9-0.8-1.9-2s0.7-2.2,1.8-2.2c1.3,0,1.6,1.1,1.6,1.9c0,0.1,0,0.2,0,0.3L54.5,10.6z M56.5,10.1c0-0.5-0.2-1.2-1-1.2
					c-0.7,0-1,0.7-1.1,1.2H56.5z"/>
				<path class="st0" d="M61.2,12.6c-1,0-1.8-0.8-1.8-2c0-1.3,0.9-2.1,1.9-2.1c1.1,0,1.8,0.8,1.8,2C63.1,11.9,62.1,12.6,61.2,12.6
					L61.2,12.6z M61.2,12c0.7,0,1.2-0.6,1.2-1.6c0-0.7-0.3-1.5-1.1-1.5c-0.8,0-1.2,0.8-1.2,1.5C60.1,11.4,60.5,12,61.2,12L61.2,12z"
					/>
				<path class="st0" d="M63.9,9.6c0-0.4,0-0.7,0-1.1h0.6l0,0.6h0c0.1-0.2,0.3-0.4,0.5-0.6c0.2-0.1,0.5-0.2,0.7-0.2
					c0.5,0,1.4,0.3,1.4,1.7v2.4h-0.7v-2.3c0-0.6-0.2-1.2-0.9-1.2c-0.3,0-0.5,0.1-0.7,0.3c-0.2,0.2-0.3,0.5-0.3,0.7v2.4h-0.7V9.6z"/>
				<path class="st0" d="M70.8,7.5v1h1v0.6h-1v2.1c0,0.5,0.1,0.8,0.5,0.8c0.1,0,0.3,0,0.4,0l0,0.6c-0.2,0.1-0.4,0.1-0.6,0.1
					c-0.1,0-0.3,0-0.4-0.1c-0.1-0.1-0.2-0.1-0.3-0.2c-0.2-0.2-0.3-0.6-0.3-1V9.1h-0.6V8.5h0.6V7.8L70.8,7.5z"/>
				<path class="st0" d="M72.5,6.6h0.7v2.5h0c0.1-0.2,0.3-0.4,0.5-0.5c0.2-0.1,0.5-0.2,0.7-0.2c0.5,0,1.3,0.3,1.3,1.7v2.4h-0.7v-2.3
					c0-0.6-0.2-1.2-0.9-1.2c-0.2,0-0.4,0.1-0.6,0.2c-0.2,0.1-0.3,0.3-0.4,0.5c0,0.1-0.1,0.2,0,0.3v2.4h-0.7V6.6z"/>
				<path class="st0" d="M77.3,10.6c0,1,0.6,1.4,1.3,1.4c0.4,0,0.7-0.1,1.1-0.2l0.1,0.5c-0.4,0.2-0.8,0.3-1.3,0.3
					c-1.2,0-1.9-0.8-1.9-2s0.7-2.2,1.8-2.2c1.2,0,1.6,1.1,1.6,1.9c0,0.1,0,0.2,0,0.3L77.3,10.6z M79.3,10.1c0-0.5-0.2-1.2-1-1.2
					c-0.7,0-1,0.7-1.1,1.2H79.3z"/>
				<path class="st0" d="M82.8,7.8c-0.1,0-0.2-0.1-0.3-0.1c-0.1-0.1-0.1-0.2-0.1-0.3c0-0.1,0.1-0.2,0.1-0.3c0.1-0.1,0.2-0.1,0.3-0.1
					c0.1,0,0.2,0,0.3,0.1c0.1,0.1,0.1,0.2,0.1,0.3c0,0.1,0,0.1,0,0.2c0,0.1-0.1,0.1-0.1,0.2c0,0-0.1,0.1-0.1,0.1
					C82.9,7.8,82.8,7.8,82.8,7.8L82.8,7.8z M82.4,12.5v-4h0.7v4H82.4z"/>
				<path class="st0" d="M84.3,7c0.4-0.1,0.9-0.1,1.3-0.1c0.7,0,1.2,0.2,1.5,0.5c0.2,0.1,0.3,0.3,0.4,0.5c0.1,0.2,0.1,0.4,0.1,0.6
					c0,0.2,0,0.4-0.1,0.6c-0.1,0.2-0.2,0.4-0.3,0.5c-0.4,0.4-1,0.6-1.6,0.6c-0.2,0-0.4,0-0.6,0v2.2h-0.7L84.3,7z M85,9.7
					c0.2,0,0.4,0.1,0.6,0.1c0.8,0,1.3-0.4,1.3-1.2c0-0.7-0.5-1.1-1.3-1.1c-0.2,0-0.4,0-0.7,0.1L85,9.7z"/>
				<path class="st0" d="M88.4,6.6h0.7v2.5h0c0.1-0.2,0.3-0.4,0.5-0.5c0.2-0.1,0.5-0.2,0.7-0.2c0.5,0,1.3,0.3,1.3,1.7v2.4H91v-2.3
					C91,9.5,90.7,9,90.1,9c-0.2,0-0.4,0.1-0.6,0.2c-0.2,0.1-0.3,0.3-0.4,0.5c0,0.1-0.1,0.2,0,0.3v2.4h-0.7V6.6z"/>
				<path class="st0" d="M94.3,12.6c-1,0-1.8-0.8-1.8-2c0-1.3,0.8-2.1,1.9-2.1c1.1,0,1.8,0.8,1.8,2C96.2,11.9,95.2,12.6,94.3,12.6
					L94.3,12.6z M94.3,12c0.7,0,1.2-0.6,1.2-1.6c0-0.7-0.3-1.5-1.2-1.5c-0.8,0-1.2,0.8-1.2,1.5C93.2,11.4,93.7,12,94.3,12L94.3,12z"
					/>
				<path class="st0" d="M97.1,9.6c0-0.4,0-0.7,0-1.1h0.6l0,0.6h0c0.1-0.2,0.3-0.4,0.5-0.6c0.2-0.1,0.5-0.2,0.7-0.2
					c0.5,0,1.4,0.3,1.4,1.7v2.4h-0.7v-2.3c0-0.6-0.2-1.2-0.9-1.2c-0.2,0-0.4,0.1-0.6,0.2c-0.2,0.1-0.3,0.3-0.4,0.5
					c0,0.1,0,0.2,0,0.3v2.4h-0.7L97.1,9.6z"/>
				<path class="st0" d="M101.8,10.6c0,1,0.6,1.4,1.3,1.4c0.4,0,0.7-0.1,1.1-0.2l0.1,0.5c-0.4,0.2-0.8,0.3-1.3,0.3
					c-1.2,0-1.9-0.8-1.9-2s0.7-2.2,1.8-2.2c1.2,0,1.6,1.1,1.6,1.9c0,0.1,0,0.2,0,0.3L101.8,10.6z M103.9,10.1c0-0.5-0.2-1.2-1-1.2
					c-0.7,0-1,0.7-1.1,1.2H103.9z"/>
				<path class="st0" d="M32.6,16.2l-4.7,14.3H30l1.4-4.4H36l1.4,4.4h2.2l-4.7-14.3L32.6,16.2z M33.7,18.6c0.2,0.6,0.3,1.3,0.6,2
					l1.3,3.8h-3.6l1.2-3.8C33.3,20,33.5,19.3,33.7,18.6z"/>
				<path class="st0" d="M45.7,19.9c-1.4,0-2.6,0.6-3.3,1.7l-0.1-1.4h-1.9l0,0.2c0.1,0.9,0.1,1.9,0.1,3.3v11.1h2.1v-5.2
					c0.4,0.4,0.8,0.7,1.3,1c0.5,0.2,1,0.3,1.6,0.3c0.6,0,1.2-0.1,1.7-0.4c0.5-0.2,1-0.6,1.4-1c0.9-1,1.4-2.4,1.4-4.2
					c0-1.5-0.4-2.8-1.2-3.8c-0.4-0.5-0.8-0.8-1.4-1.1C46.9,20.1,46.3,19.9,45.7,19.9z M45.2,21.7c1.9,0,2.7,1.8,2.7,3.6
					c0,2.3-1.1,3.7-2.8,3.7c-0.6,0-1.1-0.2-1.6-0.6c-0.4-0.4-0.8-0.9-0.9-1.4c-0.1-0.2-0.1-0.5-0.1-0.7v-1.7c0-0.2,0-0.4,0.1-0.5
					c0-0.1,0-0.1,0-0.2c0.1-0.6,0.5-1.1,0.9-1.5C44,22,44.6,21.8,45.2,21.7z"/>
				<path class="st0" d="M56.5,19.9c-1.4,0-2.6,0.6-3.3,1.7l-0.1-1.4h-1.9l0,0.2c0.1,0.9,0.1,1.9,0.1,3.3v11.1h2.1v-5.2
					c0.4,0.4,0.8,0.7,1.3,1c0.5,0.2,1,0.3,1.6,0.3c0.6,0,1.2-0.1,1.7-0.4c0.5-0.2,1-0.6,1.4-1c0.9-1,1.4-2.4,1.4-4.2
					c0-1.5-0.4-2.8-1.2-3.8c-0.4-0.5-0.8-0.8-1.4-1.1C57.6,20.1,57.1,19.9,56.5,19.9z M56,21.7c1.9,0,2.7,1.8,2.7,3.6
					c0,2.3-1.1,3.7-2.8,3.7c-0.6,0-1.1-0.2-1.6-0.6c-0.4-0.4-0.8-0.9-0.9-1.4c-0.1-0.2-0.1-0.5-0.1-0.7v-1.7c0-0.2,0-0.4,0.1-0.5
					c0-0.1,0-0.1,0-0.2c0.1-0.6,0.5-1.1,0.9-1.5C54.8,22,55.4,21.8,56,21.7z"/>
				<path class="st0" d="M70,22.3c-2-0.8-2.6-1.4-2.6-2.5c0-1,0.7-1.9,2.4-1.9c0.9,0,1.7,0.2,2.5,0.6l0.2,0.1l0.6-1.8l-0.1-0.1
					c-0.4-0.2-1.3-0.7-3-0.7c-2.7,0-4.5,1.6-4.5,4c0,1.9,1.2,3.2,3.7,4.1c1.8,0.7,2.4,1.4,2.4,2.6c0,1.4-1,2.2-2.7,2.2
					c-1.1,0-2.1-0.3-3-0.9l-0.2-0.1L65,29.8l0.1,0.1c0.8,0.5,2.3,0.9,3.5,0.9c3.6,0,4.9-2.3,4.9-4.2C73.5,24.6,72.5,23.3,70,22.3z"
					/>
				<path class="st0" d="M77.3,17.7l-2.1,0.7v1.8h-1.5v1.7h1.5v5.3c0,1.3,0.2,2.2,0.7,2.8c0.3,0.3,0.6,0.5,0.9,0.6
					c0.3,0.1,0.7,0.2,1.1,0.2c0.5,0,1.1-0.1,1.6-0.3l0.1,0l-0.1-1.7l-0.2,0.1c-0.3,0.1-0.6,0.1-1,0.1c-0.8,0-1.2-0.5-1.2-1.8v-5.2
					h2.5v-1.7h-2.5V17.7z"/>
				<path class="st0" d="M85,19.9c-2.9,0-5,2.3-5,5.5c0,3.1,2,5.3,4.8,5.3h0c2.4,0,5-1.7,5-5.5c0-1.5-0.5-2.9-1.3-3.8
					c-0.5-0.5-1-0.9-1.6-1.1C86.3,20,85.6,19.9,85,19.9z M84.9,21.7c1.9,0,2.7,1.9,2.7,3.7c0,2.2-1.2,3.8-2.8,3.8h0
					c-1.6,0-2.7-1.6-2.7-3.7C82.1,23.5,83,21.7,84.9,21.7z"/>
				<path class="st0" d="M96.2,20l-0.1,0c-0.2,0-0.3-0.1-0.5-0.1c-0.6,0-1.1,0.2-1.6,0.5c-0.5,0.3-0.8,0.7-1.1,1.3l-0.1-1.5H91
					l0,0.2c0.1,0.9,0.1,1.8,0.1,3.1l0,7.1h2.1V25c0-0.3,0-0.6,0.1-0.8c0.2-1.3,1.1-2.2,2.2-2.2c0.2,0,0.4,0,0.6,0l0.2,0L96.2,20z"/>
				<path class="st0" d="M100.9,19.9c-2.8,0-4.7,2.3-4.7,5.6c0,3.2,1.9,5.2,4.9,5.2c1.1,0,2.3-0.2,3.3-0.7l0.1-0.1l-0.4-1.6
					l-0.2,0.1c-0.8,0.3-1.7,0.5-2.6,0.5c-0.9,0-3-0.3-3.1-3.1l6.8,0l0-0.1c0-0.3,0.1-0.6,0.1-0.9C105.1,22.6,104,19.9,100.9,19.9z
					 M100.8,21.6c0.3,0,0.6,0,0.8,0.1c0.3,0.1,0.5,0.3,0.7,0.5c0.6,0.6,0.7,1.6,0.7,2h-4.8C98.5,23,99.2,21.6,100.8,21.6z"/>
			</g>
		</g>
	</g>
	<path class="st1" d="M107.3,38H5.1c-2.6,0-4.6-2.1-4.6-4.6V5.1c0-2.6,2.1-4.6,4.6-4.6h102.2c2.6,0,4.6,2.1,4.6,4.6v28.3
		C112,36,109.9,38,107.3,38z"/>
</g>
</svg>
