<?xml version="1.0" encoding="utf-8"?>
<!-- Generator: Adobe Illustrator 25.4.1, SVG Export Plug-In . SVG Version: 6.00 Build 0)  -->
<svg version="1.1" id="Layer_1" xmlns="http://www.w3.org/2000/svg" xmlns:xlink="http://www.w3.org/1999/xlink" x="0px" y="0px"
	 viewBox="0 0 112.5 38.5" style="enable-background:new 0 0 112.5 38.5;" xml:space="preserve">
<style type="text/css">
	.st0{fill:url(#SVGID_1_);}
	.st1{fill:url(#SVGID_00000034066631191703749040000014946637646394798508_);}
	.st2{fill:url(#SVGID_00000110460771632498489950000003555068013588926654_);}
	.st3{fill:url(#SVGID_00000032628275909328162400000008938300830923666058_);}
	.st4{fill:#F9F9F9;}
	.st5{fill:#F9F9FA;}
	.st6{fill:none;stroke:#FFFFFF;}
</style>
<g>
	<g>
		<g>
			
				<linearGradient id="SVGID_1_" gradientUnits="userSpaceOnUse" x1="14.8872" y1="427.6834" x2="14.8872" y2="401.9504" gradientTransform="matrix(1 0 0 -1 0 435.2604)">
				<stop  offset="0" style="stop-color:#257CB0"/>
				<stop  offset="0.21" style="stop-color:#3C8FB3"/>
				<stop  offset="0.74" style="stop-color:#73BDBA"/>
				<stop  offset="1" style="stop-color:#89CFBD"/>
			</linearGradient>
			<path class="st0" d="M8.6,7.6v12.9v12.9l12.5-12.9L8.6,7.6z"/>
			
				<linearGradient id="SVGID_00000037691635499720533340000012906470756169777796_" gradientUnits="userSpaceOnUse" x1="8.6322" y1="421.2964" x2="24.5012" y2="421.2964" gradientTransform="matrix(1 0 0 -1 0 435.2604)">
				<stop  offset="0" style="stop-color:#52C1AD"/>
				<stop  offset="1" style="stop-color:#DEE89A"/>
			</linearGradient>
			<path style="fill:url(#SVGID_00000037691635499720533340000012906470756169777796_);" d="M24.5,17l-5-3L8.6,7.5v0.1l12.5,12.9
				L24.5,17z"/>
			
				<linearGradient id="SVGID_00000114075547175420539140000005581830496110200495_" gradientUnits="userSpaceOnUse" x1="16.5667" y1="414.8163" x2="16.5667" y2="401.8543" gradientTransform="matrix(1 0 0 -1 0 435.2604)">
				<stop  offset="0" style="stop-color:#EC413D"/>
				<stop  offset="0.19" style="stop-color:#D74352"/>
				<stop  offset="0.74" style="stop-color:#A04888"/>
				<stop  offset="1" style="stop-color:#8A4A9D"/>
			</linearGradient>
			<path style="fill:url(#SVGID_00000114075547175420539140000005581830496110200495_);" d="M8.6,33.3L8.6,33.3l10.8-6.4l5-3
				l-3.4-3.5L8.6,33.3z"/>
			
				<linearGradient id="SVGID_00000125585074008409460020000002469754141139187631_" gradientUnits="userSpaceOnUse" x1="25.7077" y1="418.2713" x2="25.7077" y2="411.36" gradientTransform="matrix(1 0 0 -1 0 435.2604)">
				<stop  offset="0" style="stop-color:#F58879"/>
				<stop  offset="0.62" style="stop-color:#FBB276"/>
				<stop  offset="1" style="stop-color:#FEC874"/>
			</linearGradient>
			<path style="fill:url(#SVGID_00000125585074008409460020000002469754141139187631_);" d="M24.5,17l-3.4,3.5l3.4,3.5l5.8-3.5
				L24.5,17z"/>
			<path class="st4" d="M87.4,25.5c-0.4,0-0.9-0.1-1.3-0.3c-0.4-0.2-0.7-0.5-1-0.8h-0.1c0.1,0.4,0.1,0.8,0.1,1.2v3.1H84V17.9h0.9
				l0.2,1h0.1c0.2-0.4,0.6-0.7,1-0.9c0.4-0.2,0.8-0.3,1.3-0.3c1,0,1.7,0.3,2.2,1c0.5,0.7,0.8,1.6,0.8,2.9c0,1.2-0.3,2.2-0.8,2.9
				c-0.3,0.3-0.6,0.6-1,0.8C88.2,25.4,87.8,25.5,87.4,25.5z M87.2,18.7c-0.7,0-1.3,0.2-1.6,0.6c-0.3,0.4-0.5,1.1-0.5,2v0.3
				c0,1.1,0.2,1.8,0.5,2.3c0.3,0.5,0.9,0.7,1.6,0.7c0.3,0,0.6-0.1,0.8-0.2c0.3-0.1,0.5-0.3,0.6-0.6c0.4-0.5,0.5-1.2,0.5-2.2
				c0-0.9-0.2-1.6-0.5-2.1c-0.2-0.2-0.4-0.4-0.7-0.6C87.8,18.7,87.5,18.7,87.2,18.7z"/>
			<path class="st4" d="M92.9,25.3h-1.1V14.7h1.1V25.3z"/>
			<path class="st4" d="M99.2,25.3L99,24.3h-0.1c-0.3,0.4-0.6,0.7-1.1,1c-0.4,0.2-0.9,0.3-1.3,0.2c-0.6,0-1.2-0.2-1.7-0.6
				c-0.4-0.4-0.6-0.9-0.6-1.6c0-1.5,1.2-2.3,3.5-2.4l1.2,0v-0.5c0-0.6-0.1-1-0.4-1.3s-0.6-0.4-1.2-0.4c-0.7,0-1.4,0.2-2,0.6L95,18.4
				c0.4-0.2,0.8-0.4,1.2-0.5c0.4-0.1,0.8-0.2,1.3-0.2c0.9,0,1.5,0.2,1.9,0.6c0.4,0.4,0.6,1,0.6,1.9v5.1L99.2,25.3z M96.7,24.5
				c0.3,0,0.6,0,0.9-0.1c0.3-0.1,0.5-0.3,0.7-0.5c0.2-0.2,0.4-0.5,0.5-0.7c0.1-0.3,0.1-0.6,0.1-0.9v-0.7l-1.1,0
				c-0.9,0-1.5,0.2-1.9,0.4c-0.2,0.1-0.3,0.3-0.4,0.5c-0.1,0.2-0.1,0.4-0.1,0.7c0,0.2,0,0.3,0.1,0.5c0.1,0.2,0.2,0.3,0.3,0.4
				C96,24.5,96.4,24.6,96.7,24.5z"/>
			<path class="st4" d="M100.6,17.9h1.2l1.6,4.3c0.3,0.7,0.5,1.4,0.7,2.1h0c0.1-0.2,0.2-0.6,0.4-1.2c0.2-0.6,0.8-2.3,1.8-5.2h1.2
				l-3.1,8.5c-0.3,0.8-0.7,1.4-1.1,1.8c-0.4,0.4-1,0.5-1.5,0.5c-0.3,0-0.7,0-1-0.1v-0.9c0.3,0.1,0.5,0.1,0.8,0.1
				c0.8,0,1.3-0.4,1.6-1.3l0.4-1.1L100.6,17.9z"/>
			<path class="st4" d="M67.2,18.6c0.3,0.3,1.1,0.9,1.1,2.1c0,1.2-0.6,1.7-1.3,2.2c-0.2,0.2-0.4,0.4-0.4,0.8c0,0.1,0,0.3,0.1,0.4
				c0.1,0.1,0.2,0.2,0.3,0.3l0.5,0.4c0.7,0.6,1.3,1.1,1.3,2.2c0,1.5-1.4,3-4,3c-2.2,0-3.2-1.1-3.2-2.2c0-0.6,0.3-1.4,1.2-1.9
				c0.9-0.6,2.2-0.7,2.9-0.7c-0.2-0.3-0.5-0.6-0.5-1.1c0-0.2,0.1-0.4,0.2-0.6c-0.2,0-0.3,0-0.5,0c-1.6,0-2.5-1.2-2.5-2.5
				c0-0.4,0.1-0.8,0.3-1.2c0.2-0.4,0.4-0.7,0.7-0.9c0.9-0.7,1.9-0.9,2.7-0.9h3.1l-1,0.6L67.2,18.6z M66.1,25.5c-0.1,0-0.2,0-0.3,0
				c-0.5,0-1.1,0.1-1.6,0.3c-0.3,0.1-1.3,0.5-1.3,1.6c0,1.1,1,1.9,2.7,1.9c1.4,0,2.2-0.7,2.2-1.7C67.7,26.8,67.2,26.3,66.1,25.5z
				 M66.5,22.5c0.3-0.3,0.4-0.7,0.4-1.1c0-1.1-0.7-2.9-1.9-2.9c-0.2,0-0.4,0-0.6,0.1c-0.2,0.1-0.3,0.2-0.5,0.4
				c-0.2,0.3-0.4,0.7-0.3,1.2c0,1,0.6,2.8,1.9,2.8C65.9,23,66.2,22.8,66.5,22.5z"/>
			<path class="st4" d="M57.6,25.3c-0.5,0-1-0.1-1.4-0.2c-0.4-0.2-0.9-0.4-1.2-0.8s-0.6-0.8-0.8-1.2c-0.2-0.5-0.3-0.9-0.3-1.4
				c0-2,1.6-3.8,3.9-3.8c0.5,0,0.9,0.1,1.4,0.3c0.4,0.2,0.8,0.5,1.2,0.8c0.3,0.3,0.6,0.8,0.8,1.2c0.2,0.5,0.3,0.9,0.3,1.4
				C61.5,23.3,60.1,25.3,57.6,25.3z M59.5,24c0.3-0.5,0.5-1.1,0.5-1.7c0-1.4-0.6-4-2.5-4c-0.5,0-1,0.2-1.4,0.5
				c-0.6,0.5-0.7,1.2-0.7,1.9c0,1.5,0.7,4.1,2.6,4.1c0.3,0,0.6-0.1,0.9-0.2C59.1,24.4,59.4,24.2,59.5,24z"/>
			<path class="st4" d="M49.5,25.3c-2.4,0-3.7-1.9-3.7-3.7c0-2,1.6-3.8,3.9-3.8c0.5,0,0.9,0.1,1.4,0.3c0.4,0.2,0.8,0.5,1.2,0.8
				c0.3,0.3,0.6,0.8,0.8,1.2c0.2,0.5,0.3,0.9,0.3,1.4C53.3,23.3,51.9,25.3,49.5,25.3z M51.4,24c0.3-0.5,0.5-1.1,0.5-1.7
				c0-1.4-0.6-4-2.5-4c-0.5,0-1,0.2-1.4,0.5c-0.6,0.5-0.7,1.2-0.7,1.9c0,1.5,0.7,4.1,2.6,4.1c0.3,0,0.6-0.1,0.9-0.2
				C51,24.4,51.2,24.2,51.4,24z"/>
			<path class="st4" d="M44.7,25l-2.2,0.5c-0.8,0.2-1.7,0.2-2.5,0.3c-4.2,0-5.8-3.2-5.8-5.7c0-3,2.3-5.9,6.1-5.9
				c0.8,0,1.6,0.1,2.3,0.3c0.7,0.2,1.4,0.5,2,1l-1.3,1.2l-0.5,0.1l0.4-0.6c-0.5-0.5-1.5-1.5-3.2-1.5c-2.4,0-4.2,1.9-4.2,4.6
				c0,3,2.1,5.7,5.4,5.7c0.7,0,1.3-0.1,1.9-0.4v-2.5l-2.3,0.1l1.2-0.7h3.2l-0.4,0.4c0,0-0.1,0.1-0.1,0.1c0,0,0,0.1-0.1,0.1
				c0,0.1,0,0.6,0,0.8V25z"/>
			<path class="st4" d="M71.9,24.5c-0.5,0-0.6-0.1-0.6-0.8v-8.9c0,0,0-0.1,0-0.1c0.1-0.5,0.2-0.6,0.7-0.9h-2.2l-1.1,0.6h1.2v9.7
				c0,0.3-0.1,0.4-0.4,0.8h2.7l0.6-0.3C72.5,24.6,72.2,24.6,71.9,24.5z"/>
			<path class="st4" d="M78.1,24.7c-0.2,0.1-0.3,0.2-0.5,0.3c-0.5,0.2-1,0.3-1.5,0.3c-0.7,0-1.4-0.2-2-0.6c-1.1-0.8-1.5-2.1-1.5-3.3
				c0-2.4,1.9-3.6,3.4-3.6c0.5,0,1.1,0.1,1.6,0.4c0.5,0.4,0.9,0.9,1.1,1.5l-3.5,1.5L74,21.3c0.4,2,1.7,3.1,3.1,3.1
				c0.6,0,1.3-0.2,1.8-0.5L78.1,24.7z M76.7,20c0.3-0.1,0.4-0.2,0.4-0.4c0-0.6-0.7-1.3-1.5-1.3c-0.6,0-1.7,0.5-1.7,2.2
				c0,0.3,0,0.5,0,0.8L76.7,20z"/>
			<path class="st4" d="M79.6,17.9v1h-0.1v-1h-0.3v-0.1h0.8v0.1H79.6z"/>
			<path class="st4" d="M80.9,18.9v-1l-0.3,1h-0.1l-0.3-1v1h-0.1v-1.1h0.2l0.3,0.9l0.3-0.9H81v1.1H80.9z"/>
			<path class="st5" d="M37.2,11.2h-0.8c0-0.3-0.1-0.6-0.2-0.9h-1.1c-0.1,0.3-0.2,0.6-0.2,0.9h-0.7c0-0.1,0.2-0.6,0.5-1.6
				C35,9.1,35.2,8.5,35.3,8h0.9c0.1,0.5,0.3,1.1,0.5,1.6C36.9,10.1,37.1,10.6,37.2,11.2z M36.1,9.8c-0.2-0.4-0.3-0.9-0.4-1.4h0
				c0,0.1-0.1,0.5-0.4,1.4H36.1z"/>
			<path class="st5" d="M40.3,11.2h-0.6c0-0.1-0.2-0.4-0.7-1.1c-0.4-0.6-0.7-1.1-0.8-1.4h0c0,0.3,0.1,0.6,0.1,1c0,0.4,0,0.9,0,1.5
				h-0.6c0-0.5,0-1.1,0-1.7c0-0.6,0-1.1,0-1.5h0.7c0,0.1,0.2,0.4,0.6,1c0.3,0.4,0.5,0.8,0.7,1.3h0c0-0.3-0.1-0.6-0.1-1
				c0-0.4,0-0.9,0-1.4h0.6c0,0.4,0,0.9,0,1.5C40.2,10.1,40.2,10.7,40.3,11.2z"/>
			<path class="st5" d="M43.7,9.5c0,0.4-0.2,0.9-0.4,1.2c-0.1,0.2-0.3,0.3-0.5,0.4c-0.2,0.1-0.4,0.1-0.7,0.1c-0.2,0-0.6,0-1,0
				c0-0.5,0-1,0-1.7c0-0.6,0-1.1,0-1.5h0.4h0.3H42c0.6,0,1,0.1,1.2,0.4C43.5,8.7,43.7,9.1,43.7,9.5z M43,9.6c0-0.3-0.1-0.6-0.3-0.8
				c-0.1-0.1-0.2-0.2-0.4-0.3c-0.1-0.1-0.3-0.1-0.4-0.1c-0.1,0-0.2,0-0.3,0c0,0.3,0,0.7,0,1c0,0.4,0,0.8,0,1.2c0.1,0,0.2,0,0.3,0
				c0.1,0,0.3,0,0.4-0.1c0.1-0.1,0.2-0.1,0.3-0.3C42.9,10.1,43,9.9,43,9.6L43,9.6z"/>
			<path class="st5" d="M46.8,11.2h-0.7c-0.1-0.4-0.2-0.7-0.4-1.1c-0.1-0.1-0.1-0.1-0.2-0.2c-0.1,0-0.2,0-0.3,0H45
				c0,0.4,0,0.8,0,1.3h-0.7c0-0.5,0-1,0-1.7c0-0.6,0-1.1,0-1.5h0.4H45h0.4c0.7,0,1.1,0.3,1.1,0.8c0,0.2-0.1,0.4-0.2,0.5
				c-0.1,0.2-0.3,0.3-0.4,0.3v0c0.2,0.1,0.3,0.2,0.4,0.4C46.5,10.4,46.7,10.8,46.8,11.2z M45.9,8.9c0-0.3-0.2-0.5-0.6-0.5
				c-0.1,0-0.3,0-0.4,0c0,0.3,0,0.6,0,1h0.2C45.7,9.5,45.9,9.3,45.9,8.9L45.9,8.9z"/>
			<path class="st5" d="M50.2,9.5c0,0.5-0.1,0.9-0.4,1.2c-0.1,0.2-0.3,0.3-0.5,0.4c-0.2,0.1-0.4,0.1-0.6,0.1c-0.2,0-0.4,0-0.6-0.1
				c-0.2-0.1-0.3-0.2-0.5-0.3c-0.1-0.2-0.2-0.3-0.3-0.5c-0.1-0.2-0.1-0.4-0.1-0.6c0-0.5,0.1-0.9,0.4-1.2c0.1-0.2,0.3-0.3,0.5-0.4
				c0.2-0.1,0.4-0.1,0.6-0.1c0.2,0,0.4,0,0.6,0.1c0.2,0.1,0.3,0.2,0.5,0.3c0.1,0.2,0.2,0.3,0.3,0.5C50.2,9.1,50.2,9.3,50.2,9.5z
				 M49.5,9.6c0-0.3-0.1-0.6-0.3-0.8c-0.1-0.1-0.2-0.2-0.3-0.2c-0.1-0.1-0.2-0.1-0.3-0.1c-0.1,0-0.2,0-0.3,0.1
				c-0.1,0.1-0.2,0.1-0.3,0.2c-0.2,0.2-0.3,0.5-0.2,0.8c0,0.3,0.1,0.6,0.3,0.8c0.1,0.1,0.2,0.2,0.3,0.2c0.1,0.1,0.2,0.1,0.3,0.1
				c0.1,0,0.2,0,0.3-0.1s0.2-0.1,0.3-0.2C49.5,10.2,49.5,9.9,49.5,9.6L49.5,9.6z"/>
			<path class="st5" d="M51.5,11.2h-0.7c0-0.5,0-1.1,0-1.7c0-0.6,0-1.1,0-1.5h0.7c0,0.4,0,0.9,0,1.5C51.5,10.1,51.5,10.7,51.5,11.2z
				"/>
			<path class="st5" d="M54.9,9.5c0,0.4-0.2,0.9-0.4,1.2c-0.2,0.2-0.3,0.3-0.5,0.4c-0.2,0.1-0.4,0.1-0.7,0.1c-0.2,0-0.6,0-1,0
				c0-0.5,0-1,0-1.7c0-0.6,0-1.1,0-1.5h0.4H53h0.3c0.6,0,1,0.1,1.2,0.4C54.8,8.7,54.9,9.1,54.9,9.5z M54.3,9.6
				c0-0.3-0.1-0.6-0.3-0.8c-0.1-0.1-0.2-0.2-0.4-0.3c-0.1-0.1-0.3-0.1-0.4-0.1c-0.1,0-0.2,0-0.3,0c0,0.3,0,0.7,0,1
				c0,0.4,0,0.8,0,1.2c0.1,0,0.2,0,0.3,0c0.1,0,0.3,0,0.4-0.1c0.1-0.1,0.2-0.1,0.3-0.3C54.2,10.1,54.3,9.9,54.3,9.6z"/>
			<path class="st5" d="M59.4,11.2h-0.8c0-0.3-0.1-0.6-0.2-0.9h-1.1c-0.1,0.3-0.2,0.6-0.2,0.9h-0.7c0-0.1,0.2-0.6,0.5-1.6
				c0.2-0.5,0.4-1.1,0.6-1.6h0.9c0.1,0.5,0.3,1.1,0.5,1.6C59.1,10.1,59.3,10.6,59.4,11.2z M58.4,9.8c-0.2-0.4-0.3-0.9-0.4-1.4h0
				c0,0.1-0.1,0.5-0.4,1.4H58.4z"/>
			<path class="st5" d="M62.2,8.8c0,0.2,0,0.3-0.1,0.5c-0.1,0.2-0.2,0.3-0.3,0.4c-0.3,0.2-0.7,0.3-1,0.3c-0.1,0-0.1,0-0.2,0
				c0,0.3,0,0.7,0,1.2H60c0-0.5,0-1,0-1.7c0-0.6,0-1.1,0-1.5h0.4h0.3h0.4c0.3,0,0.5,0.1,0.8,0.2c0.1,0.1,0.2,0.2,0.2,0.3
				C62.2,8.6,62.2,8.7,62.2,8.8z M61.6,9c0-0.3-0.2-0.5-0.7-0.5c-0.1,0-0.2,0-0.4,0c0,0.3,0,0.7,0,1h0.1C61.3,9.5,61.6,9.3,61.6,9z"
				/>
			<path class="st5" d="M65,8.8c0,0.2,0,0.3-0.1,0.5c-0.1,0.2-0.2,0.3-0.3,0.4c-0.3,0.2-0.7,0.3-1,0.3c-0.1,0-0.1,0-0.2,0
				c0,0.3,0,0.7,0,1.2h-0.7c0-0.5,0-1,0-1.7c0-0.6,0-1.1,0-1.5h0.4h0.3H64c0.3,0,0.5,0.1,0.8,0.2c0.1,0.1,0.2,0.2,0.2,0.3
				C65,8.6,65,8.7,65,8.8z M64.4,9c0-0.3-0.2-0.5-0.7-0.5c-0.1,0-0.2,0-0.4,0c0,0.3,0,0.7,0,1h0.1C64.1,9.5,64.4,9.3,64.4,9z"/>
			<path class="st5" d="M69.6,9.5c0,0.5-0.1,0.9-0.4,1.2c-0.1,0.2-0.3,0.3-0.5,0.4c-0.2,0.1-0.4,0.1-0.6,0.1c-0.2,0-0.4,0-0.6-0.1
				c-0.2-0.1-0.3-0.2-0.5-0.3c-0.1-0.2-0.2-0.3-0.3-0.5c-0.1-0.2-0.1-0.4-0.1-0.6c0-0.5,0.1-0.9,0.4-1.2c0.1-0.2,0.3-0.3,0.5-0.4
				C67.8,8,68,7.9,68.2,7.9c0.2,0,0.4,0,0.6,0.1c0.2,0.1,0.3,0.2,0.5,0.3c0.1,0.2,0.2,0.3,0.3,0.5C69.6,9.1,69.6,9.3,69.6,9.5z
				 M69,9.6c0-0.3-0.1-0.6-0.2-0.8c-0.1-0.1-0.2-0.2-0.3-0.2c-0.1-0.1-0.2-0.1-0.3-0.1c-0.1,0-0.2,0-0.3,0.1
				c-0.1,0.1-0.2,0.1-0.3,0.2c-0.2,0.2-0.3,0.5-0.2,0.8c0,0.3,0.1,0.6,0.3,0.8c0.1,0.1,0.2,0.2,0.3,0.2c0.1,0.1,0.2,0.1,0.3,0.1
				c0.1,0,0.2,0,0.3-0.1c0.1-0.1,0.2-0.1,0.3-0.2C68.9,10.2,69,9.9,69,9.6L69,9.6z"/>
			<path class="st5" d="M72.8,11.2h-0.6c0-0.1-0.2-0.4-0.7-1.1S70.9,9,70.8,8.7h0c0,0.3,0.1,0.6,0.1,1c0,0.4,0,0.9,0,1.5h-0.6
				c0-0.5,0-1.1,0-1.7c0-0.6,0-1.1,0-1.5H71c0,0.1,0.2,0.4,0.6,1c0.3,0.4,0.5,0.8,0.7,1.3h0c0-0.3-0.1-0.6-0.1-1c0-0.4,0-0.9,0-1.4
				h0.6c0,0.4,0,0.9,0,1.5C72.8,10.1,72.8,10.7,72.8,11.2z"/>
		</g>
	</g>
	<path class="st6" d="M107.3,38H5.1c-2.6,0-4.6-2.1-4.6-4.6V5.1c0-2.6,2.1-4.6,4.6-4.6h102.2c2.6,0,4.6,2.1,4.6,4.6v28.3
		C112,36,109.9,38,107.3,38z"/>
</g>
</svg>
