<svg width="21" height="26" viewBox="0 0 21 26" fill="none" xmlns="http://www.w3.org/2000/svg">
<path d="M20.1673 25.583H17.7507V23.1663C17.7507 22.2049 17.3687 21.2829 16.6889 20.6031C16.0091 19.9233 15.0871 19.5413 14.1257 19.5413H6.87565C5.91424 19.5413 4.99221 19.9233 4.31239 20.6031C3.63257 21.2829 3.25065 22.2049 3.25065 23.1663V25.583H0.833984V23.1663C0.833984 21.564 1.47052 20.0273 2.60355 18.8942C3.73658 17.7612 5.2733 17.1247 6.87565 17.1247H14.1257C15.728 17.1247 17.2647 17.7612 18.3978 18.8942C19.5308 20.0273 20.1673 21.564 20.1673 23.1663V25.583ZM10.5007 14.708C9.54857 14.708 8.60581 14.5205 7.7262 14.1561C6.84659 13.7918 6.04735 13.2578 5.37413 12.5845C4.7009 11.9113 4.16687 11.1121 3.80252 10.2325C3.43818 9.35285 3.25065 8.41009 3.25065 7.45801C3.25065 6.50592 3.43818 5.56316 3.80252 4.68355C4.16687 3.80394 4.7009 3.00471 5.37413 2.33148C6.04735 1.65826 6.84659 1.12423 7.7262 0.759881C8.60581 0.395535 9.54857 0.208008 10.5007 0.208008C12.4235 0.208008 14.2675 0.971845 15.6272 2.33148C16.9868 3.69112 17.7507 5.53519 17.7507 7.45801C17.7507 9.38083 16.9868 11.2249 15.6272 12.5845C14.2675 13.9442 12.4235 14.708 10.5007 14.708ZM10.5007 12.2913C11.7825 12.2913 13.0119 11.7821 13.9183 10.8757C14.8248 9.96926 15.334 8.73989 15.334 7.45801C15.334 6.17613 14.8248 4.94675 13.9183 4.04032C13.0119 3.1339 11.7825 2.62467 10.5007 2.62467C9.21877 2.62467 7.98939 3.1339 7.08297 4.04032C6.17654 4.94675 5.66732 6.17613 5.66732 7.45801C5.66732 8.73989 6.17654 9.96926 7.08297 10.8757C7.98939 11.7821 9.21877 12.2913 10.5007 12.2913Z" fill="white"/>
</svg>
