<svg width="20" height="27" viewBox="0 0 20 27" fill="none" xmlns="http://www.w3.org/2000/svg">
<g clip-path="url(#clip0_990:849)">
<path d="M0.000505447 10.1157C0.15065 3.19236 4.84936 0 9.9997 0C15.15 0 19.8507 3.19236 19.9993 10.1157C20.0391 13.9225 18.421 20.0387 9.9997 27C1.57843 20.0387 -0.0381279 13.9225 0.000505447 10.1157ZM9.9997 17.6943C14.0903 17.6943 17.4074 14.301 17.4074 10.1157C17.3672 8.13342 16.5693 6.24617 15.1847 4.85877C13.8002 3.47138 11.9393 2.69434 10.0013 2.69434C8.06325 2.69434 6.2024 3.47138 4.81786 4.85877C3.43332 6.24617 2.63538 8.13342 2.59519 10.1157C2.5936 14.2994 5.90914 17.6926 9.9997 17.6926V17.6943Z" fill="#EB0B83"/>
</g>
<defs>
<clipPath id="clip0_990:849">
<rect width="20" height="27" fill="white" transform="matrix(-1 0 0 1 20 0)"/>
</clipPath>
</defs>
</svg>
