<svg width="26" height="26" viewBox="0 0 26 26" fill="none" xmlns="http://www.w3.org/2000/svg">
<path d="M2.83464 17.3337V2.83366H0.417969V0.416992H4.04297C4.36344 0.416992 4.67078 0.544298 4.89739 0.770905C5.124 0.997511 5.2513 1.30486 5.2513 1.62533V16.1253H20.2806L22.6972 6.45866H7.66797V4.04199H24.2463C24.43 4.042 24.6112 4.08387 24.7763 4.16444C24.9414 4.24501 25.0859 4.36214 25.1989 4.50694C25.3119 4.65174 25.3904 4.8204 25.4284 5.00009C25.4664 5.17978 25.463 5.36578 25.4184 5.54395L22.3976 17.6273C22.3321 17.8886 22.1812 18.1205 21.9688 18.2862C21.7565 18.452 21.4948 18.542 21.2255 18.542H4.04297C3.7225 18.542 3.41515 18.4147 3.18855 18.1881C2.96194 17.9615 2.83464 17.6541 2.83464 17.3337ZM5.2513 25.792C4.61036 25.792 3.99567 25.5374 3.54246 25.0842C3.08925 24.631 2.83464 24.0163 2.83464 23.3753C2.83464 22.7344 3.08925 22.1197 3.54246 21.6665C3.99567 21.2133 4.61036 20.9587 5.2513 20.9587C5.89224 20.9587 6.50693 21.2133 6.96014 21.6665C7.41336 22.1197 7.66797 22.7344 7.66797 23.3753C7.66797 24.0163 7.41336 24.631 6.96014 25.0842C6.50693 25.5374 5.89224 25.792 5.2513 25.792ZM19.7513 25.792C19.1104 25.792 18.4957 25.5374 18.0425 25.0842C17.5892 24.631 17.3346 24.0163 17.3346 23.3753C17.3346 22.7344 17.5892 22.1197 18.0425 21.6665C18.4957 21.2133 19.1104 20.9587 19.7513 20.9587C20.3922 20.9587 21.0069 21.2133 21.4601 21.6665C21.9134 22.1197 22.168 22.7344 22.168 23.3753C22.168 24.0163 21.9134 24.631 21.4601 25.0842C21.0069 25.5374 20.3922 25.792 19.7513 25.792Z" fill="white"/>
</svg>
