<svg width="32" height="31" viewBox="0 0 32 31" fill="none" xmlns="http://www.w3.org/2000/svg">
<path d="M16.0003 29.1986C8.63633 29.1986 2.66699 23.4158 2.66699 16.2819C2.66699 9.14803 8.63633 3.36523 16.0003 3.36523C23.3643 3.36523 29.3337 9.14803 29.3337 16.2819C29.3337 23.4158 23.3643 29.1986 16.0003 29.1986ZM16.0003 26.6152C18.8293 26.6152 21.5424 25.5265 23.5428 23.5887C25.5432 21.6508 26.667 19.0225 26.667 16.2819C26.667 13.5413 25.5432 10.913 23.5428 8.97513C21.5424 7.03726 18.8293 5.94857 16.0003 5.94857C13.1713 5.94857 10.4582 7.03726 8.45785 8.97513C6.45747 10.913 5.33366 13.5413 5.33366 16.2819C5.33366 19.0225 6.45747 21.6508 8.45785 23.5887C10.4582 25.5265 13.1713 26.6152 16.0003 26.6152ZM9.33366 14.9902H22.667V17.5736H9.33366V14.9902Z" fill="black"/>
</svg>
