<svg width="122" height="29" viewBox="0 0 122 29" fill="none" xmlns="http://www.w3.org/2000/svg">
<g clip-path="url(#clip0_776:381)">
<path d="M18.4342 8.72892C16.8427 7.99526 15.1963 8.19481 13.596 8.65932C11.7297 9.20089 10.1065 10.1903 8.73246 11.553C8.63913 11.6459 8.53878 11.7322 8.38506 11.8729C8.38506 11.395 8.39238 10.9995 8.38506 10.6034C8.3628 9.59132 7.88669 8.84094 6.98969 8.34984C6.07987 7.85277 5.09503 7.84919 4.10744 8.00422C2.66174 8.23095 1.32096 8.77552 0 9.36788V9.45092C0.288225 9.92499 0.484035 10.4412 0.696315 10.9487C0.80459 11.2074 0.921405 11.2325 1.16876 11.1205C1.67933 10.889 2.196 10.6646 2.72792 10.4854C3.61883 10.1849 4.51675 9.876 5.48634 10.0128C6.14911 10.106 6.27019 10.2518 6.27019 10.8988V27.89C6.27502 27.9865 6.27452 28.0833 6.26867 28.1798C6.2461 28.3802 6.33211 28.4432 6.5328 28.4381C6.99823 28.4271 7.4664 28.4083 7.92909 28.4435C8.30942 28.4734 8.38994 28.3515 8.38842 27.9907C8.37378 24.2193 8.38079 20.448 8.37866 16.6767C8.37866 15.5672 8.74466 14.5919 9.48611 13.7567C10.3169 12.8226 11.2707 12.0322 12.3742 11.4189C13.6091 10.7318 14.9145 10.2978 16.3535 10.3289C17.6165 10.356 18.3439 10.9245 18.6501 12.1197C18.9158 13.1562 18.7721 14.1782 18.5092 15.1884C18.4415 15.4474 18.5047 15.5308 18.7517 15.5768C19.2499 15.6694 19.7454 15.7738 20.2383 15.8901C20.4621 15.9436 20.5292 15.8656 20.5793 15.6625C20.8562 14.5396 20.998 13.4093 20.8266 12.2571C20.597 10.7112 19.947 9.42523 18.4342 8.72892Z" fill="url(#paint0_linear_776:381)"/>
<path d="M42.5013 23.5934C42.5013 18.6225 42.5033 13.6516 42.5074 8.68068C42.5074 8.38733 42.4586 8.26814 42.1225 8.28189C41.4326 8.31026 40.7405 8.29981 40.0485 8.28547C39.8066 8.28039 39.7349 8.35657 39.7374 8.59016C39.7484 9.57026 39.7441 10.551 39.7395 11.5311C39.7395 11.6601 39.7862 11.7999 39.655 11.9714C39.0643 11.086 38.2975 10.3971 37.4618 9.78534C36.72 9.24257 35.9758 8.69083 35.0569 8.44708C33.6182 7.87324 32.1234 7.73344 30.5859 7.86517C27.5417 8.12595 25.0492 9.43375 23.347 11.8994C20.5986 15.8807 20.4843 20.0983 22.8895 24.2365C24.8183 27.5565 27.926 29.0841 31.8388 28.9963C35.1481 28.9067 37.7207 27.4555 39.7438 24.8092V25.3143C39.7438 26.2535 39.7597 27.1926 39.7356 28.1309C39.7267 28.4685 39.8405 28.5491 40.165 28.5378C40.8128 28.5145 41.4628 28.5136 42.1106 28.5378C42.4284 28.5497 42.5132 28.4604 42.5098 28.1494C42.4918 26.631 42.5013 25.1121 42.5013 23.5934ZM37.1989 24.572C35.7742 25.9186 34.0558 26.5707 32.0923 26.6424C31.2593 26.6239 30.434 26.5614 29.6309 26.3138C27.4605 25.6471 25.8947 24.2825 24.9492 22.2853C23.6956 19.6401 23.7011 16.9627 25.0303 14.3393C26.7441 10.9572 30.656 9.41672 34.434 10.5913C34.5817 10.6373 34.7299 10.6809 34.8778 10.726C34.8976 10.5247 34.9065 10.3236 34.9257 10.122C34.9065 10.3236 34.8976 10.5247 34.8778 10.726C36.3162 11.3948 37.5243 12.3257 38.3807 13.6615C40.4233 16.8486 40.2638 21.6756 37.1989 24.572Z" fill="url(#paint1_linear_776:381)"/>
<path d="M79.5772 18.3242C79.3744 18.0318 79.3518 17.9204 79.7267 17.7659C81.1959 17.1598 82.3573 16.1785 83.2183 14.8642C84.4798 12.9383 84.8504 10.7813 84.9193 8.54533C84.9272 8.29561 84.8034 8.28605 84.6125 8.28754C83.9213 8.29381 83.229 8.31024 82.5385 8.28157C82.2012 8.26783 82.1444 8.39209 82.1475 8.68275C82.1563 9.60876 82.0368 10.5317 81.7921 11.4262C81.2663 13.3613 80.208 14.8827 78.2786 15.7248C77.6948 15.9796 77.0753 16.1038 76.462 16.2547C75.1996 16.4118 73.9305 16.3091 72.6653 16.3515C72.3259 16.3628 72.2167 16.2917 72.2176 15.9333C72.2312 10.6228 72.2347 5.31239 72.228 0.00195312H69.5183C69.5083 0.166249 69.4878 0.330545 69.4878 0.495139C69.4864 8.9744 69.4864 17.4536 69.4878 25.9326C69.4878 26.6923 69.4979 27.4519 69.4827 28.2109C69.4775 28.4649 69.5543 28.5446 69.816 28.538C70.4925 28.5213 71.1708 28.513 71.8467 28.541C72.1798 28.5548 72.235 28.4398 72.2338 28.144C72.2228 25.2441 72.2274 22.3441 72.2274 19.4441C72.2274 18.6543 72.2274 18.6654 73.0399 18.6513C74.0671 18.6337 75.0965 18.7173 76.1222 18.5984C76.422 18.5489 76.5913 18.683 76.7606 18.9291C78.8834 22.0211 81.0155 25.1072 83.157 28.1873C83.2531 28.326 83.2995 28.5327 83.5358 28.5324C84.532 28.5324 85.5281 28.5324 86.5306 28.5324C86.5367 28.3233 86.4053 28.2211 86.3232 28.1016C84.0792 24.839 81.8306 21.5799 79.5772 18.3242Z" fill="url(#paint2_linear_776:381)"/>
<path d="M63.2115 8.28179C62.8992 8.27223 62.7769 8.38844 62.6677 8.65549C60.5024 13.9631 58.3315 19.2687 56.1551 24.5722C56.1014 24.7033 56.105 24.8655 55.9513 24.9396C55.6835 24.3039 55.4212 23.682 55.1583 23.0601C55.1178 23.1119 55.0844 23.1688 55.0589 23.2291C55.0844 23.1688 55.1178 23.1119 55.1583 23.0601C55.1495 23.0196 55.1383 22.9797 55.1248 22.9406C53.1683 18.1423 51.2124 13.3435 49.2572 8.54407C49.1748 8.34154 49.0638 8.28359 48.8515 8.28747C48.1464 8.29972 47.4406 8.29165 46.7354 8.29195C46.2429 8.29195 46.2426 8.29195 46.4304 8.75228C48.344 13.4055 50.2581 18.0584 52.1727 22.7109C52.8354 24.3192 53.5131 25.9218 54.1841 27.5268C54.2656 27.7461 54.3629 27.9608 54.4248 28.184C54.4983 28.4502 54.6383 28.5505 54.9329 28.5395C55.6091 28.5141 56.2883 28.5096 56.9639 28.5395C57.3052 28.5553 57.4519 28.4391 57.5739 28.1356C60.2299 21.65 62.8924 15.1671 65.5616 8.68686C65.6113 8.56558 65.7067 8.45296 65.664 8.28956C64.8466 8.29046 64.0283 8.30718 63.2115 8.28179Z" fill="url(#paint3_linear_776:381)"/>
<path d="M118.317 10.7177C116.979 9.60618 115.481 8.8092 113.742 8.4821C112.638 8.21026 111.521 8.15978 110.393 8.2945C108.533 8.51675 106.817 9.10254 105.326 10.2466C104.078 11.0914 103.111 12.1844 102.385 13.4812C102.233 13.7548 102.151 13.7784 101.936 13.5409C101.565 13.129 101.167 12.7401 100.68 12.4536C99.3223 11.4663 97.789 11.0332 96.1088 11.0636C94.4188 11.0866 92.9151 11.621 91.6973 12.5315L95.1773 16.1407L99.2311 20.065C99.6239 20.4587 100.011 20.8581 100.411 21.2446C101.331 22.1327 102.319 22.9613 102.889 24.1392C102.989 24.3456 103.169 24.5147 103.312 24.7011C104.352 26.0773 105.682 27.0953 107.282 27.7779C108.105 28.2119 109.005 28.4163 109.914 28.5593C112.032 28.8924 114.075 28.649 116.012 27.7074C116.441 27.5742 116.823 27.3412 117.191 27.1025C119.978 25.2985 121.616 22.7711 121.943 19.515C122.295 15.9886 121.04 13.0516 118.317 10.7177ZM103.715 22.9607C103.73 22.8669 103.744 22.7734 103.764 22.6811C103.744 22.7734 103.73 22.8669 103.715 22.9607ZM119.972 18.4862C119.918 21.2344 118.721 23.445 116.492 25.1178C116.414 25.176 116.337 25.2358 116.26 25.2949C114.898 26.1152 113.444 26.6583 111.825 26.71C110.486 26.753 109.202 26.5307 107.98 25.982C107.865 25.9309 107.745 25.8924 107.627 25.8497C106.747 25.3096 105.876 24.7629 105.174 23.9931C104.69 23.4626 104.294 22.8741 103.906 22.2782C103.883 22.3207 103.863 22.3645 103.845 22.4093C103.863 22.3645 103.883 22.3207 103.906 22.2782C103.401 21.4648 103.435 20.6522 103.687 19.7355C104.009 18.5669 103.884 17.3553 103.485 16.1941C103.39 15.9366 103.396 15.6537 103.502 15.4004C103.856 14.4894 104.398 13.6924 104.997 12.925C105.795 12.0966 106.682 11.3815 107.742 10.8937C109.493 10.0892 111.315 9.84187 113.216 10.2365C113.298 10.2532 113.382 10.258 113.466 10.2684C114.722 10.6368 115.914 11.1308 116.914 11.99C117.189 12.2248 117.446 12.4754 117.712 12.7188C117.735 12.7058 117.757 12.6905 117.777 12.6731C117.813 12.6417 117.842 12.6038 117.864 12.5614C117.842 12.6038 117.813 12.6417 117.777 12.6731C117.757 12.6905 117.735 12.7058 117.712 12.7188C119.194 14.3681 120.014 16.2844 119.971 18.4862H119.972Z" fill="url(#paint4_linear_776:381)"/>
<path d="M90.112 14.0962C88.9564 15.7 88.4708 17.4694 88.7737 19.4134C89.0384 21.1161 89.8107 22.5715 91.1176 23.7407C92.2205 24.7498 93.4984 25.4096 95.0072 25.6083C95.3589 25.7433 95.731 25.7098 96.0939 25.7191C97.8126 25.7639 99.3608 25.2647 100.755 24.2885C100.899 24.1882 100.997 24.1224 100.819 23.9516C99.2434 22.4414 97.6711 20.9279 96.1022 19.411L92.739 16.1577C92.025 15.4542 91.3006 14.76 90.6024 14.0416C90.3731 13.8059 90.2758 13.8692 90.112 14.0962Z" fill="url(#paint5_linear_776:381)"/>
<path d="M89.7933 10.8513C90.1105 11.1237 90.4033 11.4236 90.6977 11.722C90.827 11.8538 90.9228 11.8797 91.0865 11.7597C92.7482 10.5379 94.6322 10.0035 96.6985 10.0438C97.2829 10.1161 97.8697 10.1794 98.4404 10.3282C99.9282 10.7165 101.228 11.4302 102.316 12.4993C102.499 12.6785 102.584 12.7084 102.745 12.4694C102.978 12.1232 103.242 11.7987 103.535 11.5001C103.735 11.2972 103.675 11.2014 103.496 11.0469C103.049 10.6657 102.603 10.2849 102.106 9.96674C100.515 8.94841 98.7857 8.3423 96.8736 8.27868C95.9241 8.12573 94.9908 8.2724 94.0676 8.45791C92.499 8.77276 91.082 9.42247 89.8135 10.3838C89.5914 10.5513 89.5768 10.6637 89.7933 10.8513Z" fill="url(#paint6_linear_776:381)"/>
<path d="M102.303 25.5208C101.678 24.915 101.673 24.9075 100.95 25.3753C99.8351 26.097 98.5929 26.4707 97.2923 26.6942C95.6499 26.819 94.0685 26.5807 92.5563 25.9306C92.449 25.8679 92.3428 25.8016 92.2339 25.743C89.0741 24.0616 87.3463 20.8796 87.73 17.3903C87.8886 15.9495 88.4343 14.642 89.331 13.4878C89.514 13.2512 89.5341 13.1144 89.2953 12.9151C88.9979 12.6608 88.7164 12.3893 88.4523 12.102C88.2866 11.9258 88.1964 11.9291 88.0393 12.1238C86.6058 13.9051 85.8076 15.9244 85.7951 18.1905C85.7789 21.1165 86.865 23.6272 89.0104 25.6705C89.9339 26.5505 90.974 27.2791 92.2065 27.7059C93.7428 28.4055 95.3635 28.6111 97.0389 28.4958C98.9122 28.3852 100.615 27.7887 102.168 26.768C103.014 26.2117 103.014 26.2102 102.303 25.5208Z" fill="url(#paint7_linear_776:381)"/>
<path d="M104.114 14.7395C104.036 14.8799 104.111 14.9784 104.158 15.0866C105.1 17.2842 105.109 19.4813 104.163 21.6805C104.117 21.7874 104.029 21.8875 104.107 22.0285C104.419 22.5925 104.752 23.1394 105.205 23.6246C107.223 20.6672 107.217 16.0072 105.2 13.167C104.761 13.6467 104.424 14.1826 104.114 14.7395Z" fill="url(#paint8_linear_776:381)"/>
</g>
<defs>
<linearGradient id="paint0_linear_776:381" x1="-5.83099" y1="18.8059" x2="127.801" y2="11.7672" gradientUnits="userSpaceOnUse">
<stop offset="0.03" stop-color="#E71182"/>
<stop offset="0.94" stop-color="#A51F5E"/>
</linearGradient>
<linearGradient id="paint1_linear_776:381" x1="-4000.64" y1="14420.5" x2="89462" y2="9564.95" gradientUnits="userSpaceOnUse">
<stop offset="0.03" stop-color="#E71182"/>
<stop offset="0.94" stop-color="#A51F5E"/>
</linearGradient>
<linearGradient id="paint2_linear_776:381" x1="-3198.7" y1="17677.8" x2="71632.8" y2="15371.8" gradientUnits="userSpaceOnUse">
<stop offset="0.03" stop-color="#E71182"/>
<stop offset="0.94" stop-color="#A51F5E"/>
</linearGradient>
<linearGradient id="paint3_linear_776:381" x1="-3570.77" y1="14468.6" x2="81282.9" y2="10285.5" gradientUnits="userSpaceOnUse">
<stop offset="0.03" stop-color="#E71182"/>
<stop offset="0.94" stop-color="#A51F5E"/>
</linearGradient>
<linearGradient id="paint4_linear_776:381" x1="-5409.59" y1="16723.1" x2="126958" y2="6618.36" gradientUnits="userSpaceOnUse">
<stop offset="0.03" stop-color="#E71182"/>
<stop offset="0.94" stop-color="#A51F5E"/>
</linearGradient>
<linearGradient id="paint5_linear_776:381" x1="-2122.55" y1="9837.65" x2="51456.1" y2="6980.11" gradientUnits="userSpaceOnUse">
<stop offset="0.03" stop-color="#E71182"/>
<stop offset="0.94" stop-color="#A51F5E"/>
</linearGradient>
<linearGradient id="paint6_linear_776:381" x1="-2665.05" y1="2341.2" x2="57336.8" y2="-7464.18" gradientUnits="userSpaceOnUse">
<stop offset="0.03" stop-color="#E71182"/>
<stop offset="0.94" stop-color="#A51F5E"/>
</linearGradient>
<linearGradient id="paint7_linear_776:381" x1="-2981.18" y1="13972.8" x2="71610.7" y2="10014.8" gradientUnits="userSpaceOnUse">
<stop offset="0.03" stop-color="#E71182"/>
<stop offset="0.94" stop-color="#A51F5E"/>
</linearGradient>
<linearGradient id="paint8_linear_776:381" x1="-376.861" y1="8412.59" x2="11217.1" y2="8261.64" gradientUnits="userSpaceOnUse">
<stop offset="0.03" stop-color="#E71182"/>
<stop offset="0.94" stop-color="#A51F5E"/>
</linearGradient>
<clipPath id="clip0_776:381">
<rect width="122" height="29" fill="white"/>
</clipPath>
</defs>
</svg>
