<svg width="20" height="20" viewBox="0 0 20 20" fill="none" xmlns="http://www.w3.org/2000/svg">
<path d="M15.8327 11.6666V14.1666H18.3327V15.8333H15.8327V18.3333H14.166V15.8333H11.666V14.1666H14.166V11.6666H15.8327ZM16.8685 3.96415C18.6685 5.76915 18.8094 8.59498 17.291 10.5558C16.6044 10.2 15.8244 9.99998 14.9994 9.99998C12.2377 9.99998 9.99935 12.2383 9.99935 15C9.99935 15.8408 10.2069 16.6333 10.5735 17.3283L9.99852 17.9042L2.93352 10.8275C1.18019 8.86415 1.24602 5.84915 3.13019 3.96415C5.01769 2.07748 8.03685 2.01415 10.0002 3.77415C11.9577 2.01665 14.9827 2.07498 16.8685 3.96415Z" fill="#EB0B83"/>
</svg>
